<?xml version="1.0" encoding="UTF-8" standalone="no"?>
<svg
   xmlns:dc="http://purl.org/dc/elements/1.1/"
   xmlns:cc="http://creativecommons.org/ns#"
   xmlns:rdf="http://www.w3.org/1999/02/22-rdf-syntax-ns#"
   xmlns:svg="http://www.w3.org/2000/svg"
   xmlns="http://www.w3.org/2000/svg"
   xmlns:sodipodi="http://sodipodi.sourceforge.net/DTD/sodipodi-0.dtd"
   xmlns:inkscape="http://www.inkscape.org/namespaces/inkscape"
   version="1.1"
   id="svg2"
   xml:space="preserve"
   width="1254.6667"
   height="589.66669"
   viewBox="0 0 1254.6667 589.66669"
   sodipodi:docname="AM_Logo (2).eps"><metadata
     id="metadata8"><rdf:RDF><cc:Work
         rdf:about=""><dc:format>image/svg+xml</dc:format><dc:type
           rdf:resource="http://purl.org/dc/dcmitype/StillImage" /></cc:Work></rdf:RDF></metadata><defs
     id="defs6"><clipPath
       clipPathUnits="userSpaceOnUse"
       id="clipPath22"><path
         d="M 8274.79,1700 C 7840.08,3240 6415.25,4392.5 4723.44,4392.5 3031.61,4392.5 1606.86,3240 1172.13,1700 Z"
         id="path20" /></clipPath><clipPath
       clipPathUnits="userSpaceOnUse"
       id="clipPath34"><path
         d="M 8074.6,1680 C 7664.39,3120 6319.88,4220.72 4723.44,4220.72 3127,4220.72 1782.53,3120 1372.3,1680 Z"
         id="path32" /></clipPath><clipPath
       clipPathUnits="userSpaceOnUse"
       id="clipPath40"><path
         d="m 8609.33,2053.72 c -642.95,5.09 -1272.85,113.83 -1899.14,251.5 -669.41,147.16 -1342.28,190.21 -2026.37,167.42 -687.79,-22.93 -1364.49,-187.9 -2051.48,-226.64 -679.92,-38.33 -1371.15,-63.91 -2051.094,-72.11 -464.68,-5.58 -465.226,-726.69 0,-721.07 651.074,7.83 1302.584,112.6 1953.634,146.69 687.7,35.99 1372.61,63.72 2060.4,96.3 681.29,32.24 1342.08,41.84 2008.11,-104.57 657.93,-144.66 1331.04,-253.26 2005.94,-258.59 465.14,-3.7 464.79,717.38 0,721.07 z"
         id="path38" /></clipPath><linearGradient
       x1="0"
       y1="0"
       x2="1"
       y2="0"
       gradientUnits="userSpaceOnUse"
       gradientTransform="matrix(7911.6,1682.76,1682.76,-7911.6,556.47,893.39)"
       spreadMethod="pad"
       id="linearGradient50"><stop
         style="stop-opacity:1;stop-color:#6ea26f"
         offset="0"
         id="stop42" /><stop
         style="stop-opacity:1;stop-color:#6ea26f"
         offset="0.377193"
         id="stop44" /><stop
         style="stop-opacity:1;stop-color:#6ea26f"
         offset="0.56451631"
         id="stop46" /><stop
         style="stop-opacity:1;stop-color:#ffffff"
         offset="1"
         id="stop48" /></linearGradient></defs><sodipodi:namedview
     pagecolor="#ffffff"
     bordercolor="#666666"
     borderopacity="1"
     objecttolerance="10"
     gridtolerance="10"
     guidetolerance="10"
     inkscape:pageopacity="0"
     inkscape:pageshadow="2"
     inkscape:window-width="640"
     inkscape:window-height="480"
     id="namedview4" /><g
     id="g10"
     inkscape:groupmode="layer"
     inkscape:label="ink_ext_XXXXXX"
     transform="matrix(1.3333333,0,0,-1.3333333,0,589.66667)"><g
       id="g12"
       transform="scale(0.1)"><path
         d="M 0,30 H 9410"
         style="fill:none;stroke:#100f0d;stroke-width:60;stroke-linecap:butt;stroke-linejoin:miter;stroke-miterlimit:10;stroke-dasharray:none;stroke-opacity:1"
         id="path14" /><g
         id="g16"><g
           id="g18"
           clip-path="url(#clipPath22)"><path
             d="M 8274.79,1700 C 7840.08,3240 6415.25,4392.5 4723.44,4392.5 3031.61,4392.5 1606.86,3240 1172.13,1700 Z"
             style="fill:none;stroke:#231f20;stroke-width:60;stroke-linecap:butt;stroke-linejoin:miter;stroke-miterlimit:10;stroke-dasharray:none;stroke-opacity:1"
             id="path24" /></g></g><path
         d="M 8274.79,1700 C 7840.08,3240 6415.25,4392.5 4723.44,4392.5 3031.61,4392.5 1606.86,3240 1172.13,1700 Z"
         style="fill:none;stroke:#231f20;stroke-width:60;stroke-linecap:butt;stroke-linejoin:miter;stroke-miterlimit:10;stroke-dasharray:none;stroke-opacity:1"
         id="path26" /><g
         id="g28"><g
           id="g30"
           clip-path="url(#clipPath34)"><g
             id="g36"
             clip-path="url(#clipPath40)"><path
               d="m 1372,1680 v 3 h 1 v 3 h 1 v 4 h 1 v 3 h 1 v 4 h 1 v 3 h 1 v 4 h 1 v 3 h 1 v 3 h 1 v 4 h 1 v 3 h 1 v 3 h 1 v 4 h 1 v 3 h 1 v 3 h 1 v 4 h 1 v 3 h 1 v 3 h 1 v 4 h 1 v 3 h 1 v 3 h 1 v 3 h 1 v 3 h 1 v 4 h 1 v 3 h 1 v 3 h 1 v 3 h 1 v 3 h 1 v 3 h 1 v 3 h 1 v 4 h 1 v 3 h 1 v 3 h 1 v 3 h 1 v 3 h 1 v 3 h 1 v 3 h 1 v 4 h 1 v 3 h 1 v 3 h 1 v 3 h 1 v 3 h 1 v 3 h 1 v 3 h 1 v 3 h 1 v 3 h 1 v 3 h 1 v 3 h 1 v 3 h 1 v 2 h 1 v 3 h 1 v 3 h 1 v 3 h 1 v 3 h 1 v 3 h 1 v 3 h 1 v 3 h 1 v 3 h 1 v 3 h 1 v 3 h 1 v 3 h 1 v 3 h 1 v 3 h 1 v 2 h 1 v 3 h 1 v 3 h 1 v 3 h 1 v 2 h 1 v 3 h 1 v 3 h 1 v 3 h 1 v 2 h 1 v 3 h 1 v 3 h 1 v 3 h 1 v 2 h 1 v 3 h 1 v 3 h 1 v 3 h 1 v 2 h 1 v 3 h 1 v 3 h 1 v 3 h 1 v 2 h 1 v 3 h 1 v 3 h 1 v 3 h 1 v 2 h 1 v 3 h 1 v 2 h 1 v 3 h 1 v 3 h 1 v 2 h 1 v 3 h 1 v 2 h 1 v 3 h 1 v 3 h 1 v 2 h 1 v 3 h 1 v 2 h 1 v 3 h 1 v 2 h 1 v 3 h 1 v 3 h 1 v 2 h 1 v 3 h 1 v 2 h 1 v 3 h 1 v 3 h 1 v 2 h 1 v 3 h 1 v 2 h 1 v 3 h 1 v 2 h 1 v 3 h 1 v 2 h 1 v 3 h 1 v 2 h 1 v 2 h 1 v 3 h 1 v 2 h 1 v 3 h 1 v 2 h 1 v 3 h 1 v 2 h 1 v 2 h 1 v 3 h 1 v 2 h 1 v 3 h 1 v 2 h 1 v 3 h 1 v 2 h 1 v 3 h 1 v 2 h 1 v 2 h 1 v 3 h 1 v 2 h 1 v 3 h 1 v 2 h 1 v 3 h 1 v 2 h 1 v 2 h 1 v 2 h 1 v 3 h 1 v 2 h 1 v 2 h 1 v 3 h 1 v 2 h 1 v 2 h 1 v 2 h 1 v 3 h 1 v 2 h 1 v 2 h 1 v 3 h 1 v 2 h 1 v 2 h 1 v 3 h 1 v 2 h 1 v 2 h 1 v 2 h 1 v 3 h 1 v 2 h 1 v 2 h 1 v 3 h 1 v 2 h 1 v 2 h 1 v 3 h 1 v 2 h 1 v 2 h 1 v 2 h 1 v 2 h 1 v 3 h 1 v 2 h 1 v 2 h 1 v 2 h 1 v 2 h 1 v 2 h 1 v 3 h 1 v 2 h 1 v 2 h 1 v 2 h 1 v 2 h 1 v 2 h 1 v 3 h 1 v 2 h 1 v 2 h 1 v 2 h 1 v 2 h 1 v 3 h 1 v 2 h 1 v 2 h 1 v 2 h 1 v 2 h 1 v 2 h 1 v 1 h 21 v 1 h 29 v 1 h 26 v 1 h 26 v 1 h 26 v 1 h 26 v 1 h 26 v 1 h 26 v 1 h 26 v 1 h 26 v 1 h 26 v 1 h 25 v 1 h 23 v 1 h 23 v 1 h 22 v 1 h 23 v 1 h 23 v 1 h 23 v 1 h 23 v 1 h 23 v 1 h 23 v 1 h 23 v 1 h 22 v 1 h 20 v 1 h 21 v 1 h 20 v 1 h 21 v 1 h 20 v 1 h 21 v 1 h 20 v 1 h 21 v 1 h 20 v 1 h 21 v 1 h 20 v 1 h 21 v 1 h 19 v 1 h 19 v 1 h 19 v 1 h 18 v 1 h 19 v 1 h 19 v 1 h 19 v 1 h 19 v 1 h 19 v 1 h 18 v 1 h 19 v 1 h 17 v 1 h 18 v 1 h 18 v 1 h 18 v 1 h 17 v 1 h 14 v 1 h 14 v 1 h 14 v 1 h 14 v 1 h 14 v 1 h 14 v 1 h 13 v 1 h 12 v 1 h 11 v 1 h 12 v 1 h 11 v 1 h 11 v 1 h 12 v 1 h 11 v 1 h 12 v 1 h 11 v 1 h 12 v 1 h 11 v 1 h 9 v 1 h 10 v 1 h 10 v 1 h 9 v 1 h 10 v 1 h 9 v 1 h 10 v 1 h 9 v 1 h 10 v 1 h 9 v 1 h 10 v 1 h 10 v 1 h 9 v 1 h 9 v 1 h 8 v 1 h 9 v 1 h 8 v 1 h 9 v 1 h 8 v 1 h 9 v 1 h 8 v 1 h 8 v 1 h 9 v 1 h 8 v 1 h 9 v 1 h 8 v 1 h 9 v 1 h 8 v 1 h 8 v 1 h 8 v 1 h 8 v 1 h 7 v 1 h 8 v 1 h 8 v 1 h 7 v 1 h 8 v 1 h 8 v 1 h 8 v 1 h 7 v 1 h 8 v 1 h 8 v 1 h 8 v 1 h 7 v 1 h 8 v 1 h 8 v 1 h 7 v 1 h 7 v 1 h 8 v 1 h 7 v 1 h 7 v 1 h 7 v 1 h 8 v 1 h 7 v 1 h 7 v 1 h 8 v 1 h 7 v 1 h 7 v 1 h 7 v 1 h 8 v 1 h 7 v 1 h 7 v 1 h 7 v 1 h 8 v 1 h 7 v 1 h 7 v 1 h 7 v 1 h 7 v 1 h 7 v 1 h 7 v 1 h 7 v 1 h 7 v 1 h 7 v 1 h 7 v 1 h 7 v 1 h 7 v 1 h 7 v 1 h 7 v 1 h 7 v 1 h 7 v 1 h 7 v 1 h 7 v 1 h 7 v 1 h 7 v 1 h 7 v 1 h 7 v 1 h 7 v 1 h 7 v 1 h 7 v 1 h 7 v 1 h 7 v 1 h 7 v 1 h 7 v 1 h 7 v 1 h 7 v 1 h 7 v 1 h 7 v 1 h 7 v 1 h 7 v 1 h 7 v 1 h 7 v 1 h 7 v 1 h 7 v 1 h 7 v 1 h 7 v 1 h 7 v 1 h 7 v 1 h 7 v 1 h 7 v 1 h 7 v 1 h 7 v 1 h 7 v 1 h 7 v 1 h 7 v 1 h 7 v 1 h 7 v 1 h 7 v 1 h 7 v 1 h 7 v 1 h 7 v 1 h 8 v 1 h 7 v 1 h 7 v 1 h 8 v 1 h 7 v 1 h 7 v 1 h 7 v 1 h 8 v 1 h 7 v 1 h 7 v 1 h 7 v 1 h 8 v 1 h 7 v 1 h 7 v 1 h 7 v 1 h 8 v 1 h 7 v 1 h 8 v 1 h 8 v 1 h 7 v 1 h 8 v 1 h 8 v 1 h 7 v 1 h 8 v 1 h 8 v 1 h 7 v 1 h 8 v 1 h 8 v 1 h 8 v 1 h 7 v 1 h 8 v 1 h 8 v 1 h 8 v 1 h 8 v 1 h 8 v 1 h 9 v 1 h 8 v 1 h 8 v 1 h 9 v 1 h 8 v 1 h 9 v 1 h 8 v 1 h 8 v 1 h 9 v 1 h 8 v 1 h 8 v 1 h 9 v 1 h 8 v 1 h 10 v 1 h 9 v 1 h 10 v 1 h 9 v 1 h 10 v 1 h 9 v 1 h 10 v 1 h 9 v 1 h 10 v 1 h 9 v 1 h 10 v 1 h 9 v 1 h 9 v 1 h 11 v 1 h 11 v 1 h 11 v 1 h 12 v 1 h 11 v 1 h 11 v 1 h 12 v 1 h 11 v 1 h 11 v 1 h 11 v 1 h 12 v 1 h 11 v 1 h 15 v 1 h 14 v 1 h 15 v 1 h 14 v 1 h 15 v 1 h 15 v 1 h 14 v 1 h 15 v 1 h 16 v 1 h 20 v 1 h 20 v 1 h 20 v 1 h 20 v 1 h 24 v 1 h 30 v 1 h 33 v 1 h 40 v 1 h 39 v 1 h 64 v 1 h 68 v 1 h 153 v -1 h 86 v -1 h 49 v -1 h 40 v -1 h 39 v -1 h 31 v -1 h 25 v -1 h 25 v -1 h 26 v -1 h 25 v -1 h 21 v -1 h 19 v -1 h 18 v -1 h 18 v -1 h 18 v -1 h 19 v -1 h 18 v -1 h 16 v -1 h 14 v -1 h 15 v -1 h 14 v -1 h 14 v -1 h 14 v -1 h 15 v -1 h 14 v -1 h 14 v -1 h 13 v -1 h 11 v -1 h 12 v -1 h 12 v -1 h 11 v -1 h 12 v -1 h 11 v -1 h 12 v -1 h 12 v -1 h 11 v -1 h 12 v -1 h 10 v -1 h 10 v -1 h 10 v -1 h 9 v -1 h 10 v -1 h 10 v -1 h 10 v -1 h 10 v -1 h 9 v -1 h 10 v -1 h 10 v -1 h 10 v -1 h 9 v -1 h 9 v -1 h 8 v -1 h 9 v -1 h 8 v -1 h 9 v -1 h 8 v -1 h 8 v -1 h 9 v -1 h 8 v -1 h 9 v -1 h 8 v -1 h 8 v -1 h 9 v -1 h 8 v -1 h 9 v -1 h 7 v -1 h 7 v -1 h 8 v -1 h 7 v -1 h 7 v -1 h 8 v -1 h 7 v -1 h 7 v -1 h 8 v -1 h 7 v -1 h 7 v -1 h 8 v -1 h 7 v -1 h 7 v -1 h 8 v -1 h 7 v -1 h 7 v -1 h 7 v -1 h 7 v -1 h 6 v -1 h 7 v -1 h 6 v -1 h 7 v -1 h 6 v -1 h 7 v -1 h 6 v -1 h 7 v -1 h 6 v -1 h 7 v -1 h 6 v -1 h 7 v -1 h 6 v -1 h 6 v -1 h 7 v -1 h 6 v -1 h 7 v -1 h 6 v -1 h 6 v -1 h 6 v -1 h 6 v -1 h 5 v -1 h 6 v -1 h 6 v -1 h 6 v -1 h 6 v -1 h 6 v -1 h 5 v -1 h 6 v -1 h 6 v -1 h 6 v -1 h 6 v -1 h 5 v -1 h 6 v -1 h 6 v -1 h 6 v -1 h 6 v -1 h 5 v -1 h 6 v -1 h 6 v -1 h 5 v -1 h 5 v -1 h 5 v -1 h 6 v -1 h 5 v -1 h 5 v -1 h 5 v -1 h 5 v -1 h 6 v -1 h 5 v -1 h 5 v -1 h 5 v -1 h 6 v -1 h 5 v -1 h 5 v -1 h 5 v -1 h 6 v -1 h 5 v -1 h 5 v -1 h 5 v -1 h 6 v -1 h 5 v -1 h 5 v -1 h 5 v -1 h 5 v -1 h 5 v -1 h 5 v -1 h 4 v -1 h 5 v -1 h 5 v -1 h 5 v -1 h 5 v -1 h 5 v -1 h 4 v -1 h 5 v -1 h 5 v -1 h 5 v -1 h 5 v -1 h 5 v -1 h 4 v -1 h 5 v -1 h 5 v -1 h 5 v -1 h 4 v -1 h 5 v -1 h 4 v -1 h 5 v -1 h 5 v -1 h 4 v -1 h 5 v -1 h 4 v -1 h 5 v -1 h 4 v -1 h 5 v -1 h 4 v -1 h 5 v -1 h 5 v -1 h 4 v -1 h 5 v -1 h 4 v -1 h 5 v -1 h 5 v -1 h 4 v -1 h 5 v -1 h 5 v -1 h 4 v -1 h 5 v -1 h 5 v -1 h 4 v -1 h 5 v -1 h 5 v -1 h 4 v -1 h 5 v -1 h 4 v -1 h 5 v -1 h 5 v -1 h 5 v -1 h 4 v -1 h 5 v -1 h 5 v -1 h 5 v -1 h 4 v -1 h 5 v -1 h 5 v -1 h 5 v -1 h 4 v -1 h 5 v -1 h 5 v -1 h 5 v -1 h 5 v -1 h 4 v -1 h 5 v -1 h 5 v -1 h 5 v -1 h 4 v -1 h 5 v -1 h 5 v -1 h 5 v -1 h 4 v -1 h 5 v -1 h 5 v -1 h 5 v -1 h 5 v -1 h 5 v -1 h 5 v -1 h 5 v -1 h 5 v -1 h 5 v -1 h 5 v -1 h 5 v -1 h 5 v -1 h 5 v -1 h 5 v -1 h 5 v -1 h 4 v -1 h 5 v -1 h 5 v -1 h 5 v -1 h 5 v -1 h 5 v -1 h 5 v -1 h 5 v -1 h 5 v -1 h 5 v -1 h 5 v -1 h 5 v -1 h 6 v -1 h 5 v -1 h 5 v -1 h 5 v -1 h 5 v -1 h 5 v -1 h 6 v -1 h 5 v -1 h 5 v -1 h 5 v -1 h 5 v -1 h 6 v -1 h 5 v -1 h 5 v -1 h 5 v -1 h 5 v -1 h 5 v -1 h 6 v -1 h 5 v -1 h 5 v -1 h 5 v -1 h 6 v -1 h 5 v -1 h 6 v -1 h 5 v -1 h 6 v -1 h 5 v -1 h 5 v -1 h 6 v -1 h 5 v -1 h 6 v -1 h 5 v -1 h 6 v -1 h 5 v -1 h 6 v -1 h 5 v -1 h 5 v -1 h 6 v -1 h 5 v -1 h 6 v -1 h 5 v -1 h 6 v -1 h 5 v -1 h 6 v -1 h 6 v -1 h 6 v -1 h 6 v -1 h 5 v -1 h 6 v -1 h 6 v -1 h 6 v -1 h 5 v -1 h 6 v -1 h 6 v -1 h 6 v -1 h 6 v -1 h 5 v -1 h 6 v -1 h 6 v -1 h 6 v -1 h 6 v -1 h 5 v -1 h 6 v -1 h 6 v -1 h 7 v -1 h 6 v -1 h 6 v -1 h 6 v -1 h 6 v -1 h 7 v -1 h 6 v -1 h 6 v -1 h 6 v -1 h 6 v -1 h 7 v -1 h 6 v -1 h 6 v -1 h 6 v -1 h 6 v -1 h 7 v -1 h 6 v -1 h 6 v -1 h 7 v -1 h 7 v -1 h 6 v -1 h 7 v -1 h 7 v -1 h 6 v -1 h 7 v -1 h 7 v -1 h 7 v -1 h 6 v -1 h 7 v -1 h 7 v -1 h 6 v -1 h 7 v -1 h 7 v -1 h 7 v -1 h 6 v -1 h 8 v -1 h 7 v -1 h 7 v -1 h 8 v -1 h 7 v -1 h 7 v -1 h 8 v -1 h 7 v -1 h 8 v -1 h 7 v -1 h 7 v -1 h 8 v -1 h 7 v -1 h 7 v -1 h 8 v -1 h 7 v -1 h 8 v -1 h 8 v -1 h 9 v -1 h 8 v -1 h 8 v -1 h 8 v -1 h 9 v -1 h 8 v -1 h 8 v -1 h 8 v -1 h 8 v -1 h 9 v -1 h 8 v -1 h 8 v -1 h 9 v -1 h 9 v -1 h 10 v -1 h 9 v -1 h 5 v -1 h 1 v -3 h 1 v -2 h 1 v -2 h 1 v -3 h 1 v -2 h 1 v -2 h 1 v -2 h 1 v -3 h 1 v -2 h 1 v -3 h 1 v -2 h 1 v -2 h 1 v -3 h 1 v -2 h 1 v -3 h 1 v -2 h 1 v -3 h 1 v -2 h 1 v -2 h 1 v -3 h 1 v -2 h 1 v -3 h 1 v -2 h 1 v -3 h 1 v -2 h 1 v -2 h 1 v -3 h 1 v -2 h 1 v -3 h 1 v -2 h 1 v -3 h 1 v -2 h 1 v -2 h 1 v -3 h 1 v -2 h 1 v -3 h 1 v -3 h 1 v -2 h 1 v -3 h 1 v -2 h 1 v -3 h 1 v -2 h 1 v -3 h 1 v -3 h 1 v -2 h 1 v -3 h 1 v -2 h 1 v -3 h 1 v -3 h 1 v -2 h 1 v -3 h 1 v -2 h 1 v -3 h 1 v -2 h 1 v -3 h 1 v -3 h 1 v -2 h 1 v -3 h 1 v -2 h 1 v -3 h 1 v -3 h 1 v -2 h 1 v -3 h 1 v -3 h 1 v -3 h 1 v -2 h 1 v -3 h 1 v -3 h 1 v -3 h 1 v -2 h 1 v -3 h 1 v -3 h 1 v -3 h 1 v -2 h 1 v -3 h 1 v -3 h 1 v -3 h 1 v -2 h 1 v -3 h 1 v -3 h 1 v -3 h 1 v -2 h 1 v -3 h 1 v -3 h 1 v -3 h 1 v -3 h 1 v -3 h 1 v -3 h 1 v -2 h 1 v -3 h 1 v -3 h 1 v -3 h 1 v -3 h 1 v -3 h 1 v -3 h 1 v -3 h 1 v -3 h 1 v -3 h 1 v -3 h 1 v -3 h 1 v -3 h 1 v -3 h 1 v -2 h 1 v -3 h 1 v -3 h 1 v -3 h 1 v -3 h 1 v -3 h 1 v -4 h 1 v -3 h 1 v -3 h 1 v -3 h 1 v -3 h 1 v -3 h 1 v -3 h 1 v -4 h 1 v -3 h 1 v -3 h 1 v -3 h 1 v -3 h 1 v -3 h 1 v -3 h 1 v -4 h 1 v -3 h 1 v -3 h 1 v -3 h 1 v -3 h 1 v -3 h 1 v -4 h 1 v -3 h 1 v -3 h 1 v -4 h 1 v -3 h 1 v -3 h 1 v -4 h 1 v -3 h 1 v -3 h 1 v -4 h 1 v -3 h 1 v -3 h 1 v -4 h 1 v -3 h 1 v -3 h 1 v -4 h 1 v -3 h 1 v -4 h 1 v -3 h 1 v -3 H 6036 v 1 h -10 v 1 h -10 v 1 h -9 v 1 h -10 v 1 h -10 v 1 h -9 v 1 h -13 v 1 h -12 v 1 h -12 v 1 h -12 v 1 h -12 v 1 h -12 v 1 h -12 v 1 h -12 v 1 h -12 v 1 h -13 v 1 h -15 v 1 h -16 v 1 h -16 v 1 h -16 v 1 h -16 v 1 h -16 v 1 h -16 v 1 h -16 v 1 h -22 v 1 h -23 v 1 h -22 v 1 h -23 v 1 h -23 v 1 h -29 v 1 h -36 v 1 h -37 v 1 h -38 v 1 h -82 v 1 h -190 v -1 h -75 v -1 h -54 v -1 h -42 v -1 h -42 v -1 h -35 v -1 h -31 v -1 h -31 v -1 h -31 v -1 h -27 v -1 h -26 v -1 h -25 v -1 h -25 v -1 h -25 v -1 h -24 v -1 h -23 v -1 h -22 v -1 h -23 v -1 h -22 v -1 h -21 v -1 h -21 v -1 h -21 v -1 h -22 v -1 h -21 v -1 h -21 v -1 h -21 v -1 h -21 v -1 h -22 v -1 h -22 v -1 h -22 v -1 h -22 v -1 h -22 v -1 h -22 v -1 h -22 v -1 h -22 v -1"
               style="fill:url(#linearGradient50);fill-opacity:1;fill-rule:nonzero;stroke:none"
               id="path52" /></g></g></g><path
         d="M 0,1700 H 9410"
         style="fill:none;stroke:#100f0d;stroke-width:60;stroke-linecap:butt;stroke-linejoin:miter;stroke-miterlimit:10;stroke-dasharray:none;stroke-opacity:1"
         id="path54" /><path
         d="M 8074.6,1695 C 7664.39,3135 6319.88,4235.72 4723.44,4235.72 3127,4235.72 1782.53,3135 1372.3,1695 Z"
         style="fill:none;stroke:#231f20;stroke-width:30;stroke-linecap:butt;stroke-linejoin:miter;stroke-miterlimit:10;stroke-dasharray:none;stroke-opacity:1"
         id="path56" /><g
         id="g58"
         transform="scale(10)"><text
           transform="matrix(1,0,0,-1,57.4938,35.7141)"
           style="font-variant:normal;font-weight:normal;font-size:38.4579px;font-family:'Times New Roman';-inkscape-font-specification:TimesNewRomanPSMT;writing-mode:lr-tb;fill:#201d1c;fill-opacity:1;fill-rule:nonzero;stroke:none"
           id="text62"><tspan
             x="0 25.650894 38.457375 66.230263 89.721962 117.49487 145.26776 158.07425 183.72516 211.49806 233.56256 241.05524 268.82773 296.60114 324.37366 333.98813 357.48035 385.25372 413.02716 425.83365 451.48508 479.25845 507.03183 541.22717 564.71838 592.49182 612.90289 640.67627 662.74084 672.35529 693.74396 717.23523 739.80652 767.57983 780.38635 806.03778 829.52899"
             y="0"
             sodipodi:role="line"
             id="tspan60">BIOLOGICAL AND ENVIRONMENTAL SERVICES</tspan></text></g><g
         id="g64"
         transform="scale(10)"><text
           transform="matrix(1,0,0,-1,7.14453,86.8422)"
           style="font-variant:normal;font-weight:normal;font-size:76.0038px;font-family:'Times New Roman';-inkscape-font-specification:TimesNewRomanPSMT;writing-mode:lr-tb;fill:#231f20;fill-opacity:1;fill-rule:nonzero;stroke:none"
           id="text68"><tspan
             x="0"
             y="0"
             id="tspan66">A</tspan></text><text
           transform="matrix(1,0,0,-1,62.03203,86.8422)"
           style="font-variant:normal;font-weight:normal;font-size:68.4034px;font-family:'Times New Roman';-inkscape-font-specification:TimesNewRomanPSMT;writing-mode:lr-tb;fill:#231f20;fill-opacity:1;fill-rule:nonzero;stroke:none"
           id="text72"><tspan
             x="0 35.50441 77.288109 126.687 176.08591 225.4848 263.52731"
             y="0"
             sodipodi:role="line"
             id="tspan70">LTHOUSE</tspan></text><text
           transform="matrix(1,0,0,-1,386.34283,86.8422)"
           style="font-variant:normal;font-weight:normal;font-size:59.7173px;font-family:'Times New Roman';-inkscape-font-specification:TimesNewRomanPSMT;writing-mode:lr-tb;fill:#231f20;fill-opacity:1;fill-rule:nonzero;stroke:none"
           id="text76"><tspan
             x="0 43.125999 86.251556"
             y="0"
             sodipodi:role="line"
             id="tspan74">AND</tspan></text><text
           transform="matrix(1,0,0,-1,534.72178,86.8422)"
           style="font-variant:normal;font-weight:normal;font-size:76.0038px;font-family:'Times New Roman';-inkscape-font-specification:TimesNewRomanPSMT;writing-mode:lr-tb;fill:#231f20;fill-opacity:1;fill-rule:nonzero;stroke:none"
           id="text80"><tspan
             x="0"
             y="0"
             id="tspan78">M</tspan></text><text
           transform="matrix(1,0,0,-1,602.30173,86.8422)"
           style="font-variant:normal;font-weight:normal;font-size:68.4034px;font-family:'Times New Roman';-inkscape-font-specification:TimesNewRomanPSMT;writing-mode:lr-tb;fill:#231f20;fill-opacity:1;fill-rule:nonzero;stroke:none"
           id="text84"><tspan
             x="0 41.783199 91.181587 140.57997 182.36317"
             y="0"
             sodipodi:role="line"
             id="tspan82">EADE,</tspan></text><text
           transform="matrix(1,0,0,-1,820.76893,86.8422)"
           style="font-variant:normal;font-weight:normal;font-size:59.7173px;font-family:'Times New Roman';-inkscape-font-specification:TimesNewRomanPSMT;writing-mode:lr-tb;fill:#231f20;fill-opacity:1;fill-rule:nonzero;stroke:none"
           id="text88"><tspan
             x="0 19.88674 63.012688 102.84413"
             y="0"
             sodipodi:role="line"
             id="tspan86">INC.</tspan></text></g><path
         d="m 5200.38,3094.64 c 45.33,-1.69 47.8,1.99 34.54,49.85 -13.14,-19 -22.25,-32.08 -34.54,-49.85 z m -208.71,-374.09 c -3.62,-3.91 -7.23,-7.88 -10.82,-11.8 10.22,-11.01 19.23,-23.79 31.34,-32.05 4.15,-2.84 15.99,5.57 32.28,11.91 -23.07,13.99 -37.95,22.97 -52.8,31.94 z m 336.43,-353.82 c 16.74,-23.03 32.06,-31.93 53.64,-8.68 -15.52,20.86 -29.82,34.2 -53.64,8.68 z m -64.87,938.4 c 26.22,-23.33 39.93,-10.81 53.29,10.58 -23.37,24 -37.77,11.79 -53.29,-10.58 z m 224.17,-485.45 c -13.25,8.44 -21.97,16.84 -32.1,19.09 -4.37,0.98 -11.54,-10.68 -17.51,-16.59 10.21,-7.52 19.97,-15.8 31.04,-21.75 1.62,-0.88 9.3,9.42 18.57,19.25 z M 4891,3829.88 c 2.84,5.44 5.7,10.91 8.55,16.35 -12.81,7.59 -25.49,15.53 -38.84,21.84 -0.65,0.33 -7.75,-12.8 -11.92,-19.66 14.1,-6.18 28.21,-12.36 42.21,-18.53 z m 330.39,-949.02 c 1.51,-5.08 3.12,-10.17 4.64,-15.26 19.52,5.64 39,11.27 66.55,19.22 -36.17,23.88 -54.91,14.65 -71.19,-3.96 z M 3849.04,2674.83 c 0.49,-5.09 1.04,-10.2 1.52,-15.28 10.8,0 22.62,-2.8 32,0.75 10.04,3.76 17.68,13.56 26.42,20.74 -2.76,3.96 -5.52,7.94 -8.24,11.92 -17.24,-6.03 -34.47,-12.09 -51.7,-18.13 z m 1537.54,954.19 c -9.21,-11.86 -20.54,-20.37 -19.41,-26.48 1.61,-8.45 11.63,-18.78 20.09,-21.15 5.1,-1.45 20.81,11.9 19.98,16.21 -2.02,9.82 -11.29,18.17 -20.66,31.42 z M 4333.35,2920.75 c 7.67,-14.76 14.96,-28.66 22.14,-42.55 7.86,7.46 22.9,15.64 22.25,22.33 -1.8,19.09 -13.44,31.89 -44.39,20.22 z m 262.58,453.15 c 0.49,-7.31 0.97,-14.64 1.51,-21.96 15.36,-0.67 30.6,-1.32 45.92,-1.99 -2.63,10.03 -4.06,27.89 -8.33,28.64 -12.39,2.15 -26.03,-2.63 -39.1,-4.69 z M 4225.25,2339.58 c -22.82,-20.35 -42.23,-30.13 -21.13,-49.44 5.68,-5.28 19.53,-1.74 29.64,-2.25 -2.37,14.46 -4.82,28.93 -8.51,51.69 z m 963.66,1117.49 c -17.41,17.8 -28.22,41.69 -56.42,22.84 12.13,-33.45 27.35,-40.42 56.42,-22.84 z m -323.66,-149.29 c -15.04,12.9 -24.42,26.65 -31.41,25.55 -10.24,-1.67 -18.74,-13.95 -28.02,-21.72 8.05,-6.31 15.52,-16.66 24.22,-17.84 8.61,-1.18 18.57,6.87 35.21,14.01 z M 3727.67,3183.85 c 11.95,12.46 19.21,20.05 26.52,27.63 -10.33,7.78 -19.77,17.98 -31.42,22.06 -4.08,1.47 -20.27,-14.01 -19.04,-18.03 3.21,-10.2 13.16,-18.27 23.94,-31.66 z m 445.42,219.62 c -9.57,-18.99 -18,-29.99 -19.88,-42.01 -0.77,-4.91 12.78,-12.03 19.67,-18.13 7.29,11.12 16.38,21.56 20.64,33.69 1.52,4.12 -9.26,12.55 -20.43,26.45 z m 344.1,241.76 c 13.72,17.58 24.71,31.57 35.67,45.56 -8.98,2.68 -19.09,9.42 -26.79,7.25 -22.34,-6.31 -30.08,-20.83 -8.88,-52.81 z m 447.67,24.72 c 19.11,-28.19 30.46,-44.74 41.74,-61.3 2.83,0.31 5.67,0.61 8.61,0.92 0,17.04 4.65,36.23 -1.89,50.24 -3.52,7.48 -26.24,6.03 -48.46,10.14 z m 518.28,-943.46 c -6.71,-0.16 -13.55,-0.28 -20.38,-0.44 -2.06,-14.8 -4.23,-29.61 -6.42,-44.4 11.64,0.21 23.3,0.43 34.95,0.64 -2.76,14.75 -5.41,29.47 -8.15,44.2 z m -1579.78,116.3 c -0.44,3.71 -0.83,7.46 -1.28,11.2 -10.34,3.55 -23.23,12.61 -30.22,9.3 -9.38,-4.34 -15.52,-17.84 -19.89,-28.68 -1.14,-2.85 12.02,-15.88 14.21,-14.87 13.07,6.17 24.91,15.05 37.18,23.05 z m 677.15,548.46 c -20.07,19.37 -38.15,18.3 -52.17,-1.06 -3.39,-4.81 1.33,-23.21 6.35,-25.23 23.77,-9.54 39,1.58 45.82,26.29 z m 568.56,467.93 c 26.97,-3.53 46.85,-6.14 66.65,-8.74 -0.39,9.17 2.54,24.16 -1.64,26.47 -19.88,11.13 -40.4,12.03 -65.01,-17.73 z m 211.75,-272.79 c -17.78,21.68 -35.86,28.31 -53.66,8.39 -5.21,-5.78 -4.74,-26.22 0.57,-30.17 25.16,-18.96 35.95,6.14 53.09,21.78 z m -499.27,-507.67 c 2.3,25.03 5.97,48.3 -22.79,54.24 -4.53,0.94 -17.42,-14.5 -17.99,-22.93 -1.71,-25.91 13.46,-35.83 40.78,-31.31 z m -828.57,363.29 c 43.85,-24.54 49.22,16.43 73.56,32.05 -43.38,26.43 -51.79,-10.54 -73.56,-32.05 z m 820.65,40.31 c 10.76,-20.8 19.1,-36.87 27.45,-52.94 8.33,9.67 23.28,19.19 23.48,29.04 0.47,22.8 -15.74,31.54 -50.93,23.9 z m 166.01,-170.35 c -3.59,6.03 -7.16,12.07 -10.68,18.08 -8.04,4.12 -18.55,13.64 -23.66,11.29 -13.06,-6 -23.78,-17.25 -35.42,-26.39 9.39,-8.48 19.43,-24.52 27.92,-23.71 14.4,1.35 27.93,13.26 41.84,20.73 z m 177.62,8.89 c -41.11,14.6 -56.63,2.52 -60.31,-23.97 -1.04,-7.66 8.04,-16.8 12.49,-25.26 14.41,14.76 28.69,29.53 47.82,49.23 z m -200.52,-165.39 c -4.82,0.02 -9.74,0.02 -14.65,0.05 -17.15,-14.54 -34.28,-30.39 -15.72,-54.01 5.09,-6.43 19.95,-5.11 30.37,-7.35 0,20.44 0,40.85 0,61.31 z m 288.84,-636.03 c -3.81,-3.38 -7.59,-6.78 -11.37,-10.17 9.46,-16.53 18.84,-33.02 28.29,-49.51 13.16,12.66 26.24,25.32 47.26,45.68 -29.63,6.48 -46.97,10.24 -64.18,14 z m -79.64,546.12 c -3.37,-4.66 -6.9,-9.32 -10.31,-13.99 9.19,-8.44 17.04,-21.01 27.84,-24.46 23.37,-7.44 48.85,-14.14 73.46,7.24 -33.9,11.61 -62.48,21.41 -90.99,31.21 z m -708.35,380.88 c -4.36,0.57 -8.81,1.14 -13.25,1.7 -10.15,-13.7 -21.31,-26.86 -29.07,-41.82 -0.93,-1.91 20.26,-20.91 24.52,-18.78 12.2,6.17 24.15,17.65 29.81,30.01 2.94,6.43 -7.57,19.08 -12.01,28.89 z m 981.76,193.43 c -9.37,8.34 -19.43,17.93 -19.79,17.6 -14.09,-13.82 -28.78,-27.61 -39.3,-44.03 -1.98,-3.01 13.28,-17.1 20.66,-26.1 12.31,16.79 24.51,33.57 38.43,52.53 z m 39.19,-754.15 c -28.01,-36.14 -6.73,-62.57 -4.93,-88.17 0.37,-5.34 14.87,-9.66 22.83,-14.44 2.14,8.81 6.8,17.91 5.87,26.39 -1.64,13.31 -6.75,26.3 -10.8,39.28 -3.03,9.76 -6.72,19.36 -12.97,36.94 z m -1055.4,667.85 c -3.72,19.94 -5.22,37.42 -10.71,53.61 -2.18,6.61 -16.47,16.02 -19.12,14.36 -9,-5.65 -23.18,-18.66 -21.31,-23.5 7.88,-20.66 7.88,-52.79 51.14,-44.47 z m -519.05,-847.14 c 23,9.72 42.89,16.66 61.13,26.62 7.39,4.01 11.3,14.58 16.68,22.16 -9.84,4.12 -21.3,13.65 -29.36,11.38 -25.54,-7.16 -44.58,-23.37 -48.45,-60.16 z m 317.11,-189.51 c -10.2,15.78 -14.47,29.41 -23.29,33.91 -10.77,5.51 -38.79,-31.58 -34.06,-48.5 2.83,-10.24 15.44,-17.79 23.66,-26.56 10.59,12.88 21.1,25.75 33.69,41.15 z m 1223.18,244.01 c -23.87,20.78 -53.22,17.54 -81.24,10.84 -9.08,-2.17 -15.04,-17.07 -22.42,-26.12 11.92,-3.15 24.8,-10.8 35.49,-8.53 22.17,4.74 43.25,14.75 68.17,23.81 z m -1623.7,563.25 c 39.48,-26.26 57.77,-6.2 72.32,14.96 3.23,4.74 -9.25,20.36 -14.55,30.96 -19.22,-15.32 -38.53,-30.63 -57.77,-45.92 z m 1056.45,80.7 c -5.2,2.98 -10.49,5.96 -15.8,8.96 -12.69,-11.78 -27.93,-21.9 -36.84,-36.02 -4.15,-6.54 1.14,-27.35 7.4,-30.22 9.48,-4.27 31.24,-2.17 33.98,3.72 7.67,16.03 8.04,35.48 11.26,53.56 z m 105.94,346.76 c -72.13,58.75 -81.05,61.74 -106.96,30.41 24.8,-12.76 47.49,-26.25 71.73,-35.91 8.43,-3.34 20.65,2.92 35.23,5.5 z m -435.16,-336.2 c 2.15,37.92 -12.32,59.6 -38.26,55.51 -9.17,-1.43 -23.76,-17.22 -23,-25.11 3.78,-37.33 33.24,-30.87 61.26,-30.4 z m 758.55,-147.41 c -19.06,-2.25 -30.04,-3.56 -41.11,-4.91 -14.11,-1.69 -30.66,0.22 -41.26,-6.84 -5.11,-3.38 1.21,-23.82 2.36,-36.33 23.37,6.73 38.63,11.79 54.16,15.31 9.26,2.12 18.99,1.81 28.56,2.59 -0.93,10.65 -1.88,21.3 -2.71,30.18 z M 3865.14,2578.79 c 6.52,-2.71 13.15,-5.4 19.69,-8.13 17.61,26.17 35.12,52.32 52.72,78.48 -2.26,3.28 -4.55,6.58 -6.9,9.85 -21.11,-6.07 -42.32,-12.14 -67.99,-19.53 11.08,-6.89 17.52,-10.87 18.02,-11.17 -6.08,-19.27 -10.82,-34.39 -15.54,-49.5 z m 190.85,170.99 c 0.18,-7.54 0.36,-15.07 0.66,-22.64 22.62,-6.01 45.35,-12.03 67.94,-18.04 -2.07,20.02 -4.14,40.04 -6.22,60.06 -20.83,-6.45 -41.67,-12.91 -62.38,-19.38 z m 1157.92,240.93 c 29.63,-17.19 53.95,-33.14 80.07,-45.48 8.34,-3.98 22.07,-0.49 31.72,3.46 4.64,1.92 9.86,16.2 7.59,18.97 -7.49,9.13 -17.71,20.97 -27.84,22.01 -28.48,2.96 -57.46,1.04 -91.54,1.04 z M 4066.39,2379.28 c -7.55,-14.06 -14.37,-20.63 -13.64,-26.2 3.51,-27.75 7.97,-55.56 15.34,-82.41 0.96,-3.52 21.49,-3.45 32.18,-1.31 3.43,0.69 7.02,19.6 6.07,20.02 -27.07,11.97 -16.26,36.08 -19.79,55.84 -1.41,8.37 -8.99,15.73 -20.16,34.06 z m 1321.98,819.03 c -43.92,4.04 -23.86,-34.94 -34.27,-53.04 -3.69,-6.53 2.19,-25.94 8.73,-29.14 8.23,-4.02 25.07,-1.01 31.9,5.54 7.48,7.12 11.43,22.22 10.1,33.01 -1.69,14.15 -10.03,27.5 -16.46,43.63 z M 4328.52,2964.27 c 11.73,9.7 36.83,21.71 35.96,31.48 -1.51,17.22 0.2,48.3 -33.88,45.92 -8.42,-0.61 -23.48,-0.2 -24.05,-2.81 -2.38,-10.65 -2.38,-22.89 0.66,-33.41 3.23,-11.46 10.9,-21.65 21.31,-41.18 z m 171.25,621.02 c -6.9,-52.52 -5.12,-57.21 36.17,-92.52 8.88,13.22 17.6,26.16 29.62,44 -41.18,-4.5 -19.69,61.61 -65.79,48.52 z m 158.95,-89.11 c 0.27,-0.25 -6.27,11.05 -9.39,10.18 -10.24,-2.81 -24.88,-8.06 -27.73,-15.99 -6.45,-18.24 -9.18,-38.65 -8.8,-58.09 0.29,-8.34 12.2,-16.39 18.83,-24.61 7.59,7.28 19.69,13.47 21.68,22.01 4.37,18.91 3.58,38.98 5.41,66.5 z M 3886.9,2709.77 c 18.55,22.8 18.28,45.39 0.59,66.57 -4.84,5.78 -18.3,9.82 -25.29,7.44 -26.14,-9.03 -28.39,-30.92 -25.47,-53.68 17.24,-6.97 32.86,-13.31 50.17,-20.33 z m 35.99,479.65 c 25.74,-17.83 52.71,-7.93 84.42,31.06 -34.63,41.43 -58.21,48.08 -84.42,-31.06 z m 675.7,-86.53 c -31.98,-0.49 -61.62,29.64 -78.76,-10.98 -6.45,-15.39 -8.7,-40.68 18.26,-45.47 39.11,-6.95 44.71,25.73 60.5,56.45 z m -145.12,-70.13 c 8.71,30.03 17.34,60.01 26.51,91.96 -23.94,0.57 -23.94,0.57 -49.79,-29.64 -29.73,-34.66 -26.13,-47.83 23.28,-62.32 z m 332.37,458.79 c -1.79,-25.56 15.9,-71.83 32.65,-83.04 7.11,-4.74 17.43,-6.97 25.93,-6.13 4.19,0.42 9.75,9.95 10.81,16.04 5.4,32.03 -35.04,75.37 -69.39,73.13 z m 525.64,-446.41 c 16.52,15.86 36.67,26.27 37.33,37.82 1.6,27.34 -24.71,37.91 -45.65,35.33 -15.8,-1.94 -29.63,-20.33 -44.35,-31.4 15.88,-12.57 31.69,-25.14 52.67,-41.75 z m -192.7,291.27 c -16.2,-0.96 -29.72,-1.81 -46.19,-2.82 3.01,-10.45 4.71,-15.71 6.04,-21.08 1.22,-4.85 2.1,-9.8 3.04,-14.69 -45.16,-9.7 -45.16,-9.7 -42.71,-38.67 67.5,-21.44 82.08,-8.08 79.82,77.26 z M 3917.57,3041.98 c -12.01,-10.68 -21.94,-15.31 -22.52,-20.87 -2.08,-21.27 -3.13,-43.1 -0.28,-64.16 0.86,-6.29 15.05,-14.24 23.87,-15.28 18.64,-2.21 45.03,28.96 37.86,49.27 -6.46,18.16 -24.07,32.37 -38.93,51.04 z m 15.15,200.65 c -1.51,3.63 -3.02,7.27 -4.44,10.92 -18.55,0 -40.79,6.28 -54.72,-1.78 -13.53,-7.97 -22.15,-29.68 -26.04,-46.93 -1.89,-8.66 9.93,-22.73 18.95,-30.47 3.78,-3.27 19.69,0.6 24.03,6.07 15.54,19.61 28.41,41.3 42.22,62.19 z m 587.7,481.53 c -50.1,11.82 -38.45,56.59 -52.54,87.25 -5.3,11.46 -11.09,22.68 -16.58,34.02 -12.13,-5.91 -24.15,-11.81 -29.62,-14.52 10.21,-26.62 22.24,-45.01 23.74,-64.25 4,-49.55 19.24,-60.36 75,-42.5 z m 549.89,-486.19 c -20.54,-15.71 -48.29,-29.35 -46.77,-37.28 4.55,-23 18.27,-45.74 33.51,-64.34 6.25,-7.6 44.49,38.22 41.55,60.13 -1.59,12.48 -15.34,23.36 -28.29,41.49 z m 243,-440.33 c 8.05,2.57 19.88,4.73 29.73,10.48 3.42,2.01 3.11,18.62 1.89,18.95 -31.34,8.69 -62.86,17.57 -94.85,22.65 -8.36,1.31 -18.57,-9.95 -27.95,-15.44 8.23,-9.99 14.77,-25.49 25.19,-28.74 19.8,-6.19 41.75,-5.43 65.99,-7.9 z m -50.18,142.42 c -6.63,10.04 -8.78,16.73 -11.72,17.07 -19.61,2.29 -42.03,9.6 -58.23,2.75 -15.22,-6.42 -24.9,-27.78 -35.12,-43.73 -2.18,-3.45 2.74,-16.87 5.69,-17.32 13.81,-2.16 30.57,-6.27 41.74,-0.64 20.64,10.46 38.14,27.19 57.64,41.87 z M 3998.62,2568 c -37.32,-8.49 -78.58,-0.82 -97.59,-44.86 9.24,-18.61 16.46,-40.85 44.96,-33.83 29.61,7.32 55.37,43.81 52.63,78.69 z m 511.74,458.02 c -29.64,-23.77 -38.14,-60.42 -21.23,-91.85 14.6,-27.11 33.08,-28.05 50.11,-2.59 24.9,37.23 17.89,60.15 -28.88,94.44 z m -639.43,-17 c 23.93,41.19 46.56,79.59 68.52,118.45 2.08,3.74 1.24,13.3 -1.33,14.69 -4.8,2.68 -12.02,2.47 -17.88,1.58 -17.24,-2.56 -34.36,-5.57 -51.32,-9.35 -9.18,-2.05 -17.78,-6.05 -32.55,-11.23 15.51,-12.61 25.09,-20.4 33.41,-27.17 4.36,-28.39 -30.96,-53.32 1.15,-86.97 z m 893.32,506.51 c -3.03,3.49 -5.96,6.97 -8.99,10.45 -8.61,-6.14 -19.4,-10.65 -25.45,-18.75 -13.35,-18.07 -26.31,-37.04 -35.8,-57.32 -10.52,-22.35 -19.02,-46.19 -23.78,-70.28 -1.61,-8.06 11.2,-18.96 17.35,-28.58 8.15,8.63 18.83,15.93 23.85,26.1 8.54,17.25 13.28,36.38 20.17,54.5 10.61,28.04 21.67,55.92 32.65,83.88 z m 463.49,141.15 c -5.2,-7 -14.77,-15.99 -19.6,-27.07 -9.19,-21.1 -3.4,-48.65 -29.53,-63.15 -2.49,-1.36 4.63,-23.16 10.11,-34.01 2.28,-4.57 12.02,-5.35 18.28,-7.91 10.02,-4.04 19.97,-8.09 29.9,-12.16 3.78,12.44 14.2,28.01 10.05,36.7 -11.46,24.11 -3.23,41.94 8.91,61.06 15.14,23.79 5.38,44.3 -28.12,46.54 z m -418.06,-700.17 c -30.75,49.74 -74.76,18.62 -105.72,36.37 -1.16,0.65 -10.42,-9.82 -13.54,-16.23 -19.6,-40.57 6.65,-72.56 21.09,-118.85 36.95,37.13 68,68.36 98.17,98.71 z m -889.36,-368.53 c 1.51,-3.02 3.02,-6.03 4.63,-9.03 15.27,1.74 30.69,3.02 45.92,5.38 47.82,7.41 66.48,55.31 104.43,76.87 3.69,2.11 3.2,21.28 -1.7,27.01 -25.39,29.51 -56.05,31.54 -81.51,1.51 -26.79,-31.48 -48.1,-67.63 -71.77,-101.74 z m 103,463.97 c 8.51,-7.52 24.53,-21.61 38.7,-34.07 43.75,23 11.18,55.68 0.41,80.36 -18.18,21.61 -36.37,43.24 -55.57,66.14 -44.41,-36.2 -49.9,-84.16 -48.09,-146.2 23.28,12.21 40.12,20.99 64.55,33.77 z m -140.47,-720.49 c -15.44,-43.52 26.4,-37.15 41.82,-47.52 30.88,-20.69 22.83,25.14 41.09,28.1 15.71,-0.61 39.85,-3.06 44.03,4.94 9.08,17.35 9.67,40.03 9.85,60.55 0.09,5.55 -13.17,14.99 -20.83,15.67 -5.95,0.54 -12.98,-9.78 -19.23,-15.53 -7.47,-6.81 -14.67,-13.83 -19.79,-18.67 -16.56,21.75 -28.22,40.93 -44.4,54.87 -3.2,2.7 -23.93,-15.14 -39.47,-25.4 13.45,-21.6 25.94,-41.58 41.11,-65.92 -13.37,3.47 -21.89,5.7 -34.18,8.91 z m 1357.83,962.45 c -12.49,-2.03 -27.05,0.06 -32.35,-5.97 -33.06,-37.64 -81.81,-64.16 -87.2,-122.22 -1.7,-17.73 -3.77,-39.87 -14.67,-51.43 -29.43,-31.17 -63.73,-57.83 -96.26,-86.08 -30.4,-26.45 -45.34,-59.54 -38.74,-99.56 2.95,-17.22 13.54,-41.41 34.09,-29.18 23.2,13.82 48.08,36.31 56.71,60.57 14.65,41.27 20.75,83.7 72.32,96.42 4.91,1.2 8.53,15.59 9.47,24.18 3.41,33.79 -0.56,69.88 10.22,100.88 8.24,23.48 32.67,53.96 53.78,57.45 37.5,6.19 38.99,22.05 32.63,54.94 z m -583.97,-157.2 c -15.61,-19.56 -30,-34.33 -40.41,-51.49 -21.01,-34.36 -44.77,-68.02 -33.91,-112.92 3.61,-14.73 4.19,-32.3 -0.45,-46.44 -6.45,-19.45 -19.96,-36.45 -29,-55.21 -11.71,-24.5 -12.68,-49.75 12.42,-65.63 12.76,-8.08 39.68,-15.31 45.07,-9.29 16.19,17.87 37.77,44.89 34.26,64.13 -11.26,62.01 0.28,118.02 20.56,175.45 10.23,28.76 22.8,60.85 -8.54,101.4 z m -632.54,-617.74 c 27.46,6.89 51.13,12.81 73.55,18.41 0.95,-9 -2.53,-27.8 5.3,-38.32 10.42,-14.12 29.54,-21.83 44.98,-32.3 6.04,12.5 14.87,24.46 17.69,37.64 6.43,30.34 5.77,63.18 46.49,72.35 6.43,1.44 11.73,16.53 13.82,26.12 3.21,15.15 6.99,31.83 3.68,46.31 -4.16,18.3 -10.88,41.15 -24.42,50.75 -14.09,9.94 -37.37,15.59 -54.9,-7.43 -16.77,-22.14 -35.32,-46.83 -58.89,-59.11 -48.65,-25.25 -70.14,-52.01 -67.3,-114.42 z m 1269.24,127.13 c -7.65,25.49 -23.27,40.21 -53.94,36.34 -15.24,-1.93 -31.04,0.37 -46.56,0.11 -15.55,-0.28 -30.98,-1.37 -46.51,-2.11 1.61,-19.4 2.37,-38.93 5.03,-58.19 1.87,-14.06 9.37,-27.84 9.08,-41.63 -0.57,-22.41 -6.72,-44.65 -8.04,-67.12 -0.65,-11.95 1.7,-25.05 6.26,-36.19 7.65,-18.5 19.09,-35.4 27.15,-53.78 7.13,-16.41 11.82,-33.88 19.61,-56.61 8.32,11.07 13.9,15.74 15.9,21.62 11.26,32.86 18.93,35.26 43.16,9.97 10.62,-10.96 18.37,-24.64 27.64,-37.49 29.44,32.63 22.56,65.35 -6.91,82 -10.69,6.04 -23.85,16.46 -26.11,26.96 -12.13,55.71 -21.1,112.06 -32.49,175.77 25.86,-31.45 48.18,-38.9 66.73,0.35 z m -365.94,390.37 c -27.2,-7.75 -63.72,3.79 -63.08,-31.36 1.53,-78.02 -55.45,-126.25 -84.98,-188.35 -20.28,-42.64 -37.02,-87.18 -51.61,-132.09 -3.09,-9.46 7.67,-31.26 16.78,-34.71 11.15,-4.21 30.64,0.92 40.79,9.12 30.57,24.72 61.13,50.59 86.61,80.35 29.27,34.23 47.23,72.31 43.07,122.63 -3.87,48.48 7.67,98.25 12.29,147.46 0.6,6.89 0.13,13.87 0.13,26.95 z m 403.71,-463.35 c 6.07,5.67 11.67,9.01 14.4,13.94 14.77,25.95 25.84,54.64 44.03,77.85 17.13,21.82 14.48,32.77 -9.29,42.09 -10.78,4.21 -22.15,6.9 -32.93,11.24 -20.07,8.14 -40.7,15.64 -59.75,25.89 -15.79,8.48 -29.72,20.45 -44.38,30.92 -14.4,10.29 -31.99,18.05 -42.52,31.38 -28.38,35.82 -68.25,42.73 -107.45,39.11 -42.86,-3.96 -70.7,-34.77 -85.08,-75.05 -2.57,-7.26 0.57,-19.03 5.22,-26.01 17.78,-26.91 76.65,-47.44 108.95,-40.41 14.77,3.2 30.17,7.71 44.76,6.17 56.99,-6.04 113.79,-13.96 170.5,-22.15 5.29,-0.78 9.65,-8.34 14.66,-12.85 -50.84,-46.91 -56.23,-71.57 -21.12,-102.12 z m 79.91,-408.81 c -16.19,23.43 -27.74,40.07 -39.27,56.69 -3.61,-0.45 -7.2,-0.93 -10.82,-1.41 -0.84,-17.6 -0.18,-35.44 -3.11,-52.71 -1.69,-10.47 -8.99,-20.06 -13.84,-30.03 -8.23,6.84 -16.65,13.53 -24.69,20.53 -8.32,7.13 -15.14,17.61 -24.61,21.2 -17.87,6.79 -35.11,10.3 -31.43,36.41 0.65,4.7 -13.15,11.51 -20.25,17.32 -8.15,-10.51 -22.53,-20.71 -23.1,-31.63 -1.14,-20.57 5.78,-41.58 9.19,-61.57 -19.14,8.7 -34.65,15.7 -53.89,24.4 -4.52,-31.41 -2.83,-60.94 -42.21,-63.42 -15.79,35.32 -30.75,71.47 -48.45,106.16 -4.08,7.91 -17.22,13.76 -27.01,15.46 -15.04,2.54 -30.83,0.66 -56.31,0.66 11.26,29.12 20.63,53.61 30.68,79.64 -16.1,11.54 -51.99,-0.09 -50.01,35.21 1.16,20.16 4.46,41.44 12.99,59.25 2.85,5.93 32.93,8.19 36.75,2.66 18.07,-26.36 40.59,-14.27 58.56,-13.8 12.05,-17.04 22.55,-33.8 35.5,-48.2 2,-2.23 22.83,8.87 23.12,9.38 47.71,91.15 -56.44,78.02 -20.94,99.85 -29.34,15.55 0,0 -26.31,13.99 -1.89,-18.69 -1.69,-17.47 -3.11,-31.02 -22.62,42.28 -16.5,69.89 21.6,97.71 3.86,2.79 9.82,6.52 9.91,9.89 0.38,34.78 6.74,71.57 -2.53,103.8 -7.97,27.61 -40.27,24.88 -64.86,14.99 -38.24,-15.39 -72.5,-18.37 -102.03,17.73 -12.15,14.81 -25.49,18.07 -44.69,2.99 -56.99,-44.57 -105.76,-95.97 -108.29,-170.76 -1.44,-41.52 8.68,-88.36 28.48,-124.58 35.95,-65.66 75.54,-128.23 85.46,-204.5 7.58,-58.34 48.28,-87.59 98.37,-108.4 13.72,-5.67 27.15,-13.66 38.34,-23.4 8.05,-7.03 12.12,-18.63 18.09,-28.18 -12.01,-3.01 -24.99,-10.66 -35.68,-8.2 -53.4,12.3 -106.51,25.8 -158.85,41.77 -49.24,14.99 -92.11,3.7 -132.54,-24.02 -25.2,-17.23 -49.22,-36.04 -75.06,-52.17 -8.92,-5.51 -21.49,-5.06 -32.49,-7.36 -0.55,9.19 -2.26,18.47 -1.61,27.56 2.19,28.24 -33.03,57.38 -64.36,52.19 -48.47,-8.06 -96.83,-17.88 -145.59,-24.09 -20.35,-2.6 -41.74,2.09 -62.66,3.47 -0.2,4.69 -0.47,9.38 -0.67,14.06 19.02,5.62 39.47,8.6 56.79,17.6 20.82,10.8 38.61,27.15 58.23,40.36 21.76,14.66 43.92,28.81 66.25,42.56 75.17,46.35 91.92,96.15 62.48,178.14 -19.3,53.63 -36.92,107.96 -52.42,162.76 -5.33,18.74 -6.45,41.01 -1.83,59.78 9.29,37.76 9.48,73.87 -13.7,105.11 -42.3,57.07 -86.82,112.63 -132.17,167.42 -5.87,7.07 -21.76,5.81 -41.17,10.28 16.67,-20.73 25,-31.12 33.32,-41.51 -10.05,-6.49 -20.07,-12.97 -26.7,-17.24 -6.05,-15.92 -12.97,-29.95 -16.56,-44.78 -3.99,-16.34 -5.87,-33.35 -7.01,-50.18 -1.13,-16.65 -0.19,-33.49 -0.19,-50.26 -3.42,-0.28 -6.82,-0.54 -10.23,-0.84 -3.49,4.3 -6.99,8.64 -10.59,12.97 -4.36,5.46 -7.78,13.2 -13.53,15.85 -6.36,2.94 -18,4.62 -21.88,1 -17.8,-16.49 -33.69,-35.04 -50.27,-52.84 6.44,-3.77 12.4,-9.57 19.3,-10.81 9.87,-1.76 28.04,2.56 29.09,-0.56 4.91,-13.51 5.58,-28.74 6.24,-43.45 0.27,-6.67 -4.73,-13.61 -4.36,-20.24 1.6,-24.91 17.52,-31.73 38.71,-19.13 9.67,5.77 21.88,7.43 32.96,10.94 2.36,-13.25 5.11,-26.5 7.08,-39.82 0.88,-5.85 -0.92,-12.08 -0.09,-17.91 6.16,-42.49 -11.74,-76.61 -30.96,-113.2 -11.54,-21.99 -11.27,-49.85 -31.7,-70.33 -3.5,-3.45 13.26,-27.05 17.89,-36.08 -13.72,-40.02 -27.18,-79.64 -43.16,-126.42 -5.42,16.36 -12.8,27.81 -11.91,38.65 1.78,24.75 -7.22,46.75 -28.89,50.18 -10.81,1.73 -25.67,-22.16 -41.55,-37.22 -3.7,7.21 -8.14,19.71 -15.83,29.81 -7.27,9.46 -17.89,16.37 -26.97,24.42 -5.2,-12.85 -11.82,-25.36 -14.95,-38.71 -1.51,-6.61 3.6,-14.72 -1.04,-27.43 -8.89,8.01 -18.46,15.45 -26.6,24.18 -24.43,26 -32.57,25.7 -53.11,-4.38 -5.79,-8.49 -10.23,-17.99 -18.26,-32.37 19.1,-3.81 34.45,-6.87 58.2,-11.6 -9.16,-22.05 -16.55,-44.26 -27.46,-64.66 -10.22,-19.21 -26.51,-19.73 -45.14,-8.96 -7.5,4.32 -17.8,3.75 -26.88,5.41 -0.95,-8.63 -1.7,-17.31 -3.03,-25.92 -1.25,-8.05 -3.03,-16.04 -6.15,-32.39 -11.94,28.54 -19.7,47 -28.12,67.12 5.57,37.07 13.14,77.25 16.65,117.78 1.05,11.72 -8.61,25.23 -16.01,36.15 -1.7,2.6 -19.39,-0.13 -20.53,-3.57 -4.17,-11.87 -9.29,-27.29 -4.92,-37.55 21.78,-51.37 -16.65,-85.68 -30.67,-133.31 -16.09,17.3 -27.44,30.71 -40.14,42.81 -21.96,21.07 -40.44,40.72 -0.29,62.81 3.6,2 2.37,20.07 -1.97,27.46 -4.45,7.38 -16.95,16.09 -23.59,14.49 -9.54,-2.23 -19.79,-11.84 -24.52,-21.02 -4.16,-8.11 -2.64,-20.09 -1.32,-30.06 5.03,-37.55 -12.95,-46.94 -50.16,-37.86 0.95,12.69 1.7,26.22 3.21,39.68 1.42,12.62 3.6,25.16 5.39,37.72 -13.44,0.23 -26.79,0.64 -40.13,0.59 -4.64,-0.03 -9.26,-1.28 -19.41,-2.82 5.79,19.98 10.7,37.06 18.66,64.41 -64.38,-33.53 -86.15,8.74 -113.02,46.83 12.59,4.38 23.76,7.11 33.87,12.08 8.12,3.96 22.24,13.2 21.31,15.63 -15.45,42.95 23.39,48.16 48.93,63.52 -29.23,26.35 -14.86,40.09 9.18,48.11 51.78,17.26 52.18,16.95 24.63,62.32 -2.19,3.52 -3.41,7.64 -6.26,14.23 -15.14,-8.48 -28.02,-15.64 -40.9,-22.87 -19.5,13.3 -17.31,60.82 -54.9,40.51 -8.81,-40.22 22.15,-79.43 -4.82,-112.86 -36.17,40.27 -68.92,76.8 -105.83,117.91 12.66,4.19 21.67,7.19 30.65,10.14 9.66,3.16 19.31,6.28 28.97,9.43 -4.91,12.73 -7.57,27.26 -15.71,37.44 -4.06,5.03 -18.26,3.29 -27.63,2.3 -10.06,-1.04 -19.69,-4.84 -40.62,-10.35 0,65.7 -3.21,125.5 1.24,184.76 2.44,33.4 16.28,66.3 27.63,98.45 3.43,9.61 15.26,16.95 24.42,23.64 23.96,17.54 50.65,31.96 71.69,52.4 6.7,6.53 2.89,30.32 -3.69,41.89 -4.55,7.97 -22.08,8.69 -34,12.24 -1.81,0.53 -4.55,-0.86 -6.54,-1.99 -19.22,-11.24 -42.23,-23.28 -53.88,3.63 -4.14,9.81 13.84,29.92 22.92,44.54 7.3,11.77 16.48,22.4 24.81,33.52 -11.74,7.56 -23.3,15.2 -35.02,22.59 -7.87,4.94 -15.92,9.52 -21.3,12.75 -1.34,26.76 -2.58,50.45 -3.69,73.99 16.46,5 33.68,6.74 46.75,15.06 14.87,9.54 26.04,24.94 38.82,37.8 -10.7,9.3 -21.49,18.59 -33.89,29.35 27.17,18.15 54.34,35.04 90.49,8.78 3.04,8.35 6.91,15.34 8.14,22.73 3.98,24.5 14.95,36.43 42.52,35.81 56.96,-1.28 57.09,0.24 41.35,43.73 35.99,25.99 71.39,48.24 102.63,75.4 20.92,18.16 7.86,51.22 -19.97,52.03 -26.99,0.78 -41.85,11.52 -52.05,35.54 -4.1,9.6 -15.84,15.98 -25.02,24.68 14.68,28.4 31.51,51.36 71.09,49.13 18.08,-1.01 38.72,8.34 54.93,18.32 15.42,9.56 25.17,23.55 2.26,41.32 -18.09,14.09 -30.88,35.1 -48.27,55.72 40.62,21.79 75.73,49.53 124.18,32.23 8.91,-3.21 26.42,-4.45 28.79,-0.32 16.66,29.83 44.1,34.51 80.26,32.21 -9.48,20.54 -16.09,35.16 -24.7,53.83 13.55,1.06 23.49,1.56 33.43,2.67 19.48,2.2 39.94,1.86 58.29,7.72 35.31,11.19 94.38,-12.55 101.77,-45.12 2.28,-10.33 -1.88,-22.34 -3.8,-33.44 -2.08,-11.66 -5,-23.18 -9.66,-44.54 31.91,18.68 44.9,37.85 45.09,63.53 0.18,29.39 12.3,65.93 -37.12,69.55 20.07,34.2 53.87,44.45 81.52,28.61 5.1,-2.91 12.01,-3.01 18.16,-3.69 65.31,-7.24 133.95,-4.47 195.01,-24.73 44.76,-14.92 75.27,10.51 112.57,10.69 4.14,0.03 8.33,8.24 11.34,11.53 -23.37,11.42 -45.33,20.11 -64.65,32.78 -6.06,3.97 -7.74,18.84 -7.01,28.35 3.7,47.64 35.98,50.24 75.93,60 46.37,11.28 97.31,-2.95 140.98,28.08 12.66,9.03 40.2,-2.05 60.75,-5.2 38.04,-5.79 75.91,-13.06 113.97,-18.66 15.63,-2.28 38.07,5.17 38.62,-18.97 0.18,-10.5 -15.13,-21.42 -23.59,-31.99 -4.05,-5.03 -8.49,-9.71 -13.79,-15.75 36.83,-4.45 70.23,-9.53 103.74,-11.77 8.51,-0.57 24.8,7.22 25.38,12.5 5.48,50.84 41.29,25.12 65.4,26.88 17.33,1.24 35.11,-1.62 52.15,0.63 29.28,3.86 55.01,4.13 74.52,-24.21 6.06,-8.81 21.01,-14.48 32.55,-15.84 21.21,-2.5 42.89,-0.7 67.33,-0.7 8.79,-35.2 46.09,-61.88 28.1,-106.09 -1.6,-4.03 12.95,-19 22.34,-22.2 21.74,-7.45 44.98,-10.81 70.9,-16.6 -19.2,-34.01 3.63,-41.51 25.47,-52.61 18.36,-9.34 35.41,-22.38 50.36,-36.53 4.93,-4.57 5.49,-22.07 1.04,-26.19 -6.63,-6.17 -23.47,-11.19 -28.75,-7.16 -19.14,14.34 -26.72,2.23 -43.29,-6.41 -37.29,-19.42 -72.61,-34.44 -87.09,-79.88 -3.33,-10.62 -32.19,-13.13 -49.34,-19.36 -0.84,-4.24 -1.69,-8.49 -2.61,-12.73 21.37,-10.26 42.89,-20.49 57.83,-27.67 7.84,-22.77 14.94,-43.14 22.42,-64.88 -2.72,-2.98 -6.54,-7.64 -10.97,-11.59 -12.42,-11.04 -36.72,-23.52 -35.41,-32.27 3.39,-22.63 17.51,-43.9 28.68,-64.99 4.25,-8.17 14.2,-13.39 18.36,-21.6 11.66,-22.88 26.7,-21.42 42.43,-6.51 22.13,20.9 47.79,16.61 71.36,8.3 12.21,-4.33 29.36,-20.28 28.78,-30.18 -1.02,-20.18 -10.6,-40.81 -20.34,-59.3 -8.05,-15.23 -21.48,-27.62 -32.58,-41.27 14.31,-10.24 27.36,-25.91 43.19,-29.58 33.22,-7.74 67.85,-9.16 93.04,-12.11 11.35,-17.79 18.18,-34.47 30,-45.82 29.82,-28.52 35.79,-41.23 26.81,-78.35 59.53,-7.61 20.54,-55.72 32.55,-84.15 6.34,-14.94 0.95,-38.54 -6.62,-54.66 -8.82,-18.55 -24.72,-34.58 -39.86,-49.09 -13.81,-13.13 -30.67,-23.17 -46.66,-33.79 -9.37,-6.18 -21.99,-17.52 -29.15,-15.03 -34.49,11.81 -24.45,-11.58 -26.34,-30.5 14.86,0 27.84,-0.41 40.82,0.09 17.31,0.69 30.92,-1.74 31.13,-24.09 0,-5.92 5.32,-15.72 9.95,-17.02 28.56,-7.85 29.99,-27.73 34.37,-53.34 5.46,-31.76 25.27,-60.82 36.25,-91.94 6.72,-19.01 16.55,-40.19 -14.86,-52.19 -11.36,-4.35 -18.11,-21.87 -26.03,-34.01 -18.37,-28.34 -36.76,-56.72 -54.07,-85.72 -14.5,-24.22 -30.87,-48.23 -39.56,-74.57 -4.56,-13.93 5.47,-32.7 8.99,-49.34 -58.8,-19.23 -58.8,-19.23 -65.03,77.57 -44.6,-17.67 -40.25,29.37 -52.75,46.54 -15.44,21.09 -28.28,26.7 -56.59,26.72 8.24,-31.84 15.62,-60.24 24.24,-93.06 -14.49,-17.79 -30.58,-18.39 -42.04,9.64 -17.02,41.64 -45.08,54.89 -87.65,50.24 -5.79,-0.63 -16.76,17.46 -19.89,28.42 -5.68,19.93 -7.21,40.99 -11.06,65.31 -52.46,-43.25 -53.22,-68.66 -4.56,-98.17 38.04,-23.04 54.52,-53.04 51.9,-97.4 -0.87,-14.68 10.5,-30.04 16.18,-45.13 1.58,-4.26 4.9,-9.42 3.78,-12.96 -7.22,-22.12 -15.54,-43.89 -25.95,-72.36"
         style="fill:#231f20;fill-opacity:1;fill-rule:evenodd;stroke:none"
         id="path90" /></g></g></svg>
